<svg width="120" height="120" viewBox="0 0 120 120" xmlns="http://www.w3.org/2000/svg"><defs><linearGradient x1="-5.64%" y1="85.894%" x2="105.583%" y2="14.144%" id="a"><stop stop-color="#6051F2" offset="0%"/><stop stop-color="#7D8CF9" offset="100%"/></linearGradient><linearGradient x1="-.816%" y1="78.825%" x2="92.338%" y2="35.874%" id="b"><stop stop-color="#FFF" stop-opacity=".7" offset="0%"/><stop stop-color="#FFF" stop-opacity=".81" offset="38%"/><stop stop-color="#FFF" offset="95%"/></linearGradient></defs><g fill="none"><rect fill="url(#a)" width="119.423" height="119.423" rx="15.09"/><path d="M59.706 32.638c-18.757 0-33.963 15.205-33.963 33.962a33.896 33.896 0 006.974 20.717 4.064 4.064 0 006.906-.657 15.51 15.51 0 0113.98-8.785h12.239a15.51 15.51 0 0113.98 8.785 4.064 4.064 0 006.884.657 33.895 33.895 0 007.007-20.683 33.962 33.962 0 00-34.007-33.996zm2.185 38.071a12.826 12.826 0 1110.46-10.471 12.838 12.838 0 01-10.46 10.471z" fill="url(#b)"/></g></svg>