<svg width="120" height="120" viewBox="0 0 120 120" xmlns="http://www.w3.org/2000/svg"><defs><linearGradient x1="-5.64%" y1="85.894%" x2="105.583%" y2="14.144%" id="a"><stop stop-color="#6051F2" offset="0%"/><stop stop-color="#6459F3" offset="24%"/><stop stop-color="#6E6DF5" offset="60%"/><stop stop-color="#7D8CF9" offset="100%"/></linearGradient><linearGradient x1="-69.326%" y1="5.955%" x2="123.62%" y2="76.888%" id="b"><stop stop-color="#FFF" offset="0%"/><stop stop-color="#FFF" stop-opacity=".97" offset="20%"/><stop stop-color="#FFF" stop-opacity=".88" offset="53%"/><stop stop-color="#FFF" stop-opacity=".73" offset="93%"/><stop stop-color="#FFF" stop-opacity=".7" offset="100%"/></linearGradient><linearGradient x1="48.5%" y1="50.5%" x2="49.5%" y2="50.5%" id="c"><stop stop-color="#FFF" offset="0%"/><stop stop-color="#FFF" stop-opacity=".97" offset="14%"/><stop stop-color="#FFF" stop-opacity=".88" offset="36%"/><stop stop-color="#FFF" stop-opacity=".73" offset="64%"/><stop stop-color="#FFF" stop-opacity=".53" offset="96%"/><stop stop-color="#FFF" stop-opacity=".5" offset="100%"/></linearGradient><linearGradient x1="-99.055%" y1="49.063%" x2="66.83%" y2="50.302%" id="d"><stop stop-color="#FFF" offset="0%"/><stop stop-color="#FFF" stop-opacity=".97" offset="14%"/><stop stop-color="#FFF" stop-opacity=".88" offset="36%"/><stop stop-color="#FFF" stop-opacity=".73" offset="64%"/><stop stop-color="#FFF" stop-opacity=".53" offset="96%"/><stop stop-color="#FFF" stop-opacity=".5" offset="100%"/></linearGradient><linearGradient x1="42.058%" y1="20.673%" x2="85.196%" y2="137.693%" id="e"><stop stop-color="#FFF" offset="0%"/><stop stop-color="#FFF" offset="100%"/></linearGradient></defs><g fill="none"><rect fill="url(#a)" width="119.92" height="119.92" rx="15.09"/><path d="M42.198 43.369l-2.274-.785A31.921 31.921 0 0059.5 83.293l30.125 10.595-6.753-14.074A71.368 71.368 0 0042.198 43.37z" fill="url(#b)"/><path fill="url(#c)" d="M89.625 93.876l-.012-.011v.011z"/><path d="M59.5 83.293a31.83 31.83 0 01-19.02-18.189 70.697 70.697 0 00-13.539-.773l-2.376.091a31.921 31.921 0 0033.149 30.693l31.83-1.239L59.5 83.293z" fill="url(#d)"/><path d="M73.21 26.567l-1.592-1.796c-13.285 11.6-14.654 31.773-3.058 45.062l21.03 24.055 1.058-15.574a71.311 71.311 0 00-17.439-51.747z" fill="url(#e)"/></g></svg>