<svg width="120" height="120" viewBox="0 0 120 120" xmlns="http://www.w3.org/2000/svg"><defs><linearGradient x1="-5.64%" y1="85.894%" x2="105.583%" y2="14.144%" id="a"><stop stop-color="#6051F2" offset="0%"/><stop stop-color="#7D8CF9" offset="100%"/></linearGradient><linearGradient x1="-49.71%" y1="50.034%" x2="88.324%" y2="50.034%" id="b"><stop stop-color="#FFF" stop-opacity=".8" offset="0%"/><stop stop-color="#FFF" stop-opacity=".83" offset="27%"/><stop stop-color="#FFF" stop-opacity=".92" offset="70%"/><stop stop-color="#FFF" offset="100%"/></linearGradient><linearGradient x1="-38.893%" y1="49.982%" x2="190.997%" y2="49.982%" id="c"><stop stop-color="#FFF" offset="0%"/><stop stop-color="#FFF" stop-opacity=".97" offset="14%"/><stop stop-color="#FFF" stop-opacity=".88" offset="36%"/><stop stop-color="#FFF" stop-opacity=".73" offset="64%"/><stop stop-color="#FFF" stop-opacity=".53" offset="96%"/><stop stop-color="#FFF" stop-opacity=".5" offset="100%"/></linearGradient></defs><g fill="none"><rect fill="url(#a)" width="119.423" height="119.423" rx="15.09"/><path d="M41.717 28.472L99 57.589a1.642 1.642 0 010 2.91L41.513 90.893a1.381 1.381 0 01-1.958-1.63l4.324-13.743c.103-.33.325-.608.623-.781l25.585-14.717a1.381 1.381 0 000-2.412L43.789 43.358a1.415 1.415 0 01-.68-.849l-3.396-12.452a1.381 1.381 0 012.004-1.585z" fill="url(#b)"/><path d="M44.31 74.91c.067 0 .124-.125.192-.17l25.585-14.717a1.381 1.381 0 000-2.412L43.913 43.426a5.898 5.898 0 00-2.026.725l-19.8 12.453a2.955 2.955 0 000 5.083l19.8 12.407a6.17 6.17 0 002.422.815z" fill="url(#c)" opacity=".79"/></g></svg>