<svg width="18" height="26" viewBox="0 0 18 26" fill="none" xmlns="http://www.w3.org/2000/svg"><mask id="a" mask-type="alpha" maskUnits="userSpaceOnUse" x="-1" y="0" width="19" height="26"><path fill-rule="evenodd" clip-rule="evenodd" d="M0 .061h17.805v25.707H0V.06z" fill="#fff"/></mask><g mask="url(#a)"><path d="M6.924.061H.873c-.483 0-.874.462-.874 1.031v.384c0 .557.378 1.02.85 1.021h.008c4.959 0 8.66 3.084 9.254 11.189.037.503-.281.947-.707.997l-1.39.163c-.11.013-.192.126-.19.258.098 4.94-2.485 8.06-6.967 8.06H.793c-.44.004-.793.434-.793.954v.697c0 .526.36.953.806.953h6.118c6.01 0 10.881-5.754 10.881-12.853S12.934.06 6.925.06" fill="url(#b)"/></g><path d="M4 8.5a1.5 1.5 0 1 1-3 0 1.5 1.5 0 0 1 3 0z" fill="url(#c)"/><path d="M2.6 21H2.4c-.773 0-1.4-.7-1.4-1.564v-5.871C1 12.7 1.627 12 2.4 12H2.6c.773 0 1.4.7 1.4 1.565v5.87C4 20.3 3.373 21 2.6 21z" fill="url(#d)"/><defs><linearGradient id="b" x1="20.275" y1="34.623" x2="33.095" y2="1.224" gradientUnits="userSpaceOnUse"><stop stop-color="#4A6FE9"/><stop offset="1" stop-color="#6687F6"/></linearGradient><linearGradient id="c" x1="4.416" y1="11.033" x2="5.526" y2="6.857" gradientUnits="userSpaceOnUse"><stop stop-color="#4A6FE9"/><stop offset="1" stop-color="#6687F6"/></linearGradient><linearGradient id="d" x1="4.416" y1="24.1" x2="10.956" y2="15.9" gradientUnits="userSpaceOnUse"><stop stop-color="#4A6FE9"/><stop offset="1" stop-color="#6687F6"/></linearGradient></defs></svg>