<svg width="22" height="19" viewBox="0 0 22 19" fill="none" xmlns="http://www.w3.org/2000/svg">
<path fill-rule="evenodd" clip-rule="evenodd" d="M7.73121 1.58184C8.35971 0.684417 9.42053 0.183594 10.958 0.183594C12.4954 0.183594 13.5563 0.684414 14.1848 1.58177C14.4309 1.93316 14.5859 2.33527 14.6854 2.68118C15.0372 2.77136 15.4024 2.92028 15.741 3.15589C16.2659 3.52107 16.6606 4.04998 16.8492 4.72705L20.188 2.1228L21.6522 3.99992L16.9722 7.65033V8.72082H19.7784V11.1014H16.9722V12.5586H18.5894L21.6585 15.6277L19.9751 17.3111L17.6033 14.9392H15.9506L10.9582 18.8172L5.96559 14.9392H4.3967L2.02487 17.3111L0.341507 15.6277L3.41061 12.5586H4.94399V11.1014H1.86329V8.72082H4.94399V7.5044L0.451101 3.99992L1.91527 2.1228L5.10245 4.60881C5.30257 3.98816 5.68125 3.49953 6.17517 3.15589C6.5138 2.92029 6.87892 2.77137 7.23073 2.68119C7.3302 2.33529 7.48515 1.93319 7.73121 1.58184Z" fill="#5E80F2"/>
</svg>
