<svg width="21" height="18" viewBox="0 0 21 18" fill="none" xmlns="http://www.w3.org/2000/svg">
<path fill-rule="evenodd" clip-rule="evenodd" d="M3.06504 0.25L0.938033 9.82151C0.935593 9.83151 0.933354 9.84158 0.931319 9.85172L0.916664 9.91767V17.75H20.4167V9.91767L20.402 9.85168L20.3995 9.83963L20.3953 9.82157L18.2683 0.25H3.06504ZM2.41666 10.75V16.25H18.9167V10.75H14.4167V13.75H6.91666V10.75H2.41666ZM4.91666 3.9662C4.91666 3.55198 5.25245 3.2162 5.66666 3.2162H15.6667C16.0809 3.2162 16.4167 3.55198 16.4167 3.9662C16.4167 4.38041 16.0809 4.7162 15.6667 4.7162H5.66666C5.25245 4.7162 4.91666 4.38041 4.91666 3.9662ZM5.16666 6.2162C4.75245 6.2162 4.41666 6.55198 4.41666 6.9662C4.41666 7.38041 4.75245 7.7162 5.16666 7.7162H10.6667H16.1667C16.5809 7.7162 16.9167 7.38041 16.9167 6.9662C16.9167 6.55198 16.5809 6.2162 16.1667 6.2162H10.6667H5.16666Z" fill="url(#paint0_linear_1007_4777)"/>
<defs>
<linearGradient id="paint0_linear_1007_4777" x1="23.1212" y1="23.7777" x2="29.01" y2="-0.903166" gradientUnits="userSpaceOnUse">
<stop stop-color="#4A6FE9"/>
<stop offset="1" stop-color="#6687F6"/>
</linearGradient>
</defs>
</svg>
