<svg width="22" height="22" viewBox="0 0 22 22" fill="none" xmlns="http://www.w3.org/2000/svg">
<path fill-rule="evenodd" clip-rule="evenodd" d="M21.1395 21.1406V11.2975H11.2964V21.1406H21.1395ZM21.1395 10.7045V0.861437H11.2964L11.2964 10.7045H21.1395ZM17.9376 17.9386H14.4984V14.4995H17.9376V17.9386ZM17.9376 7.50257H14.4984V4.06341H17.9376V7.50257ZM10.7035 10.7045L10.7035 6.55384H7.85726V5.01215H10.7035V0.861437H0.860357V5.01215H3.70655V6.55384H0.860357V10.7045H5.01107V7.85835H6.55275V10.7045L10.7035 10.7045ZM6.25627 6.25736H5.30754V5.30863H6.25627V6.25736ZM3.41008 8.15483V9.10356H2.46135V8.15483H3.41008ZM3.41008 3.41116H2.46135V2.46243H3.41008V3.41116ZM5.30754 3.41116V2.46243H6.25627V3.41116H5.30754ZM8.15374 2.46243H9.10247V3.41116H8.15374V2.46243ZM9.10247 8.15483V9.10356H8.15374V8.15483H9.10247ZM10.3477 21.1406V11.2975L0.860357 11.2975V21.1406L10.3477 21.1406ZM7.34963 17.9386H3.70655V14.4995H7.34963V17.9386Z" fill="url(#paint0_linear_1007_4789)"/>
<defs>
<linearGradient id="paint0_linear_1007_4789" x1="-6.12461" y1="-1.95118" x2="22.1084" y2="-9.45737" gradientUnits="userSpaceOnUse">
<stop stop-color="#4A6FE9"/>
<stop offset="1" stop-color="#6687F6"/>
</linearGradient>
</defs>
</svg>
