<svg width="18" height="15" viewBox="0 0 18 15" fill="none" xmlns="http://www.w3.org/2000/svg">
<path d="M0.249997 9C0.249997 4.16751 4.16751 0.25 9 0.25C13.8325 0.25 17.75 4.16751 17.75 9C17.75 11.8285 16.2848 14.0448 15.5522 14.7994C14.8083 14.4713 12.7521 13.5147 12.2642 13.2436C11.8524 13.0148 11.551 12.8176 11.3419 12.6535L11.3435 12.6518C11.4349 12.5537 11.5535 12.4265 11.6761 12.2794C12.2839 11.55 12.95 10.3817 12.95 8.19922C12.95 6.78575 12.6705 5.58687 11.9856 4.7307C11.2751 3.84257 10.2322 3.44922 8.99996 3.44922C7.76776 3.44922 6.7248 3.84257 6.0143 4.7307C5.32937 5.58687 5.04995 6.78575 5.04995 8.19922C5.04995 10.3817 5.71602 11.55 6.32379 12.2794C6.4464 12.4265 6.56498 12.5537 6.65633 12.6517L6.6564 12.6517L6.65803 12.6535C6.4489 12.8176 6.14748 13.0148 5.73572 13.2436C5.24777 13.5147 2.93545 14.1686 2.19156 14.4966C0.470132 12.8167 0.179923 10.1322 0.249997 9Z" fill="url(#paint0_linear_1007_4746)"/>
<defs>
<linearGradient id="paint0_linear_1007_4746" x1="20.1785" y1="19.8108" x2="24.7467" y2="-0.867659" gradientUnits="userSpaceOnUse">
<stop stop-color="#4A6FE9"/>
<stop offset="1" stop-color="#6687F6"/>
</linearGradient>
</defs>
</svg>
