<svg width="24" height="24" viewBox="0 0 24 24" fill="none" xmlns="http://www.w3.org/2000/svg"><path fill-rule="evenodd" clip-rule="evenodd" d="M11.75 3a8.75 8.75 0 1 0 0 17.5 8.75 8.75 0 0 0 0-17.5ZM4.5 11.75a7.25 7.25 0 1 1 12.36 5.143 22.937 22.937 0 0 1-1.846-.899 7.169 7.169 0 0 1-.922-.59l.002-.002c.09-.097.21-.225.332-.372.608-.73 1.274-1.898 1.274-4.08 0-1.414-.28-2.612-.964-3.469-.71-.888-1.754-1.281-2.986-1.281-1.232 0-2.275.393-2.986 1.281-.685.857-.964 2.055-.964 3.469 0 2.182.666 3.35 1.274 4.08.123.147.241.275.332.373l.002.001a7.16 7.16 0 0 1-.922.59c-.488.271-1.102.571-1.846.9A7.228 7.228 0 0 1 4.5 11.75Zm3.468 6.187A7.216 7.216 0 0 0 11.75 19c1.386 0 2.68-.389 3.781-1.063-.467-.22-.883-.43-1.245-.631-.62-.345-1.126-.685-1.466-1.026-.156-.156-.334-.388-.375-.706-.042-.33.081-.59.187-.755.098-.153.23-.294.323-.395l.044-.047c.092-.099.18-.194.275-.307.392-.47.926-1.303.926-3.12 0-1.253-.254-2.054-.636-2.532-.356-.445-.913-.718-1.814-.718s-1.458.273-1.814.718c-.382.478-.636 1.279-.636 2.532 0 1.818.534 2.65.926 3.12.094.113.183.208.275.307l.044.047c.094.101.225.242.323.395.106.164.23.426.187.755-.041.318-.218.55-.375.706-.34.341-.846.681-1.466 1.026-.362.2-.778.411-1.246.63Zm5.9-2.732.002.003a.02.02 0 0 1-.003-.003Zm-4.235 0-.003.003a.05.05 0 0 0 .003-.003Z" fill="#C3C9CF"/></svg>